
<svg xmlns="http://www.w3.org/2000/svg" xmlns:xlink="http://www.w3.org/1999/xlink" viewBox="0 0 40 40" width="40" height="40" fill="none">
  <svg xmlns="http://www.w3.org/2000/svg" height="40" width="40" viewBox="0 0 24 24" fill="#067164" x="0" y="0" opacity="100%">
    <path fill="none" d="M0 0h24v24H0z"></path>
    <path d="M11.23 6c-1.66 0-3.22.66-4.36 1.73C6.54 6.73 5.61 6 4.5 6a2.5 2.5 0 0 0 0 5c.21 0 .41-.03.61-.08-.05.25-.09.51-.1.78a6.006 6.006 0 0 0 6.68 6.27c2.55-.28 4.68-2.26 5.19-4.77.15-.71.15-1.4.06-2.06-.09-.6.38-1.13.99-1.13H22V6H11.23zM4.5 9c-.28 0-.5-.22-.5-.5s.22-.5.5-.5.5.22.5.5-.22.5-.5.5zm6.5 6c-1.66 0-3-1.34-3-3s1.34-3 3-3 3 1.34 3 3-1.34 3-3 3z"></path>
    <path d="M11 10a2 2 0 1 0 0 4 2 2 0 1 0 0-4z"></path>
  </svg>
  <defs>
    <filter id="filter_dshadow_10_0_2_0000001a" color-interpolation-filters="sRGB" filterUnits="userSpaceOnUse">
      <feFlood flood-opacity="0" result="bg-fix"></feFlood>
      <feColorMatrix in="SourceAlpha" type="matrix" values="0 0 0 0 0 0 0 0 0 0 0 0 0 0 0 0 0 0 127 0" result="alpha"></feColorMatrix>
      <feOffset dx="0" dy="2"></feOffset>
      <feGaussianBlur stdDeviation="5"></feGaussianBlur>
      <feComposite in2="alpha" operator="out"></feComposite>
      <feColorMatrix type="matrix" values="0 0 0 0 0 0 0 0 0 0 0 0 0 0 0 0 0 0 0.1 0"></feColorMatrix>
      <feBlend mode="normal" in2="bg-fix" result="bg-fix-filter_dshadow_10_0_2_0000001a"></feBlend>
      <feBlend in="SourceGraphic" in2="bg-fix-filter_dshadow_10_0_2_0000001a" result="shape"></feBlend>
    </filter>
  </defs>
</svg>
